# xmcd CD database file
#
# Track frame offsets:
#	150
#	19281
#	41462
#	80166
#	105633
#	138567
#	169719
#	197662
#	215297
#	226839
#	241287
#	253794
#	293196
#
# Disc length: 4799 seconds
#
# Revision: 0
# Processed by: cddbd v1.5.1PL0 Copyright (c) Steve Scherf et al.
# Submitted via: CDex 1.50
#
DISCID=b512bd0d
DTITLE=Michi - News März 2004
DYEAR=2004
DGENRE=Jazz
TTITLE0=Fritz Hartschuh Quintet - Autumn in Europe (Autumn Leaves)
TTITLE1=Inge Brandenburg - It's alright with me - Summertime
TTITLE2=Albert Mangelsdorff Jazztett (Berlin Calling) - Nicas Dream
TTITLE3=Tete Montoliu Trio (A Tot Jazz Vol.2) - Chim chim chereee
TTITLE4=Dusko Goykovich (Swinging Macedonia) - Macedonia
TTITLE5=Valdambrini Pian Quintet (Afrodite) - Arabian mood
TTITLE6=Valdambrini Pian Quintet (Afrodite) - I due modi
TTITLE7=Valdambrini Pian Quintet (Afrodite) - Palpitazione
TTITLE8=Gérald Raingo and his Friends (Library) (To be pop or not to be pop) - Vallée blanche
TTITLE9=Gérald Raingo and his Friends (Library) (To be pop or not to be pop) - La planterre
TTITLE10=Gérald Raingo and his Friends (Library) (To be pop or not to be pop) - Hocken Bar
TTITLE11=Barney Wilen (Barney) - Yordu
TTITLE12=Barney Wilen (Barney) - Besame Mucho
EXTD=YEAR: 2004
EXTT0=
EXTT1=
EXTT2=
EXTT3=
EXTT4=
EXTT5=
EXTT6=
EXTT7=
EXTT8=
EXTT9=
EXTT10=
EXTT11=
EXTT12=
PLAYORDER=
